<?xml version="1.0" encoding="UTF-8" standalone="no"?>
<!DOCTYPE svg PUBLIC "-//W3C//DTD SVG 1.1//EN"
 "http://www.w3.org/Graphics/SVG/1.1/DTD/svg11.dtd">
<!-- Generated by graphviz version 2.47.0 (20210316.0004)
 -->
<!-- Title: dependencies Pages: 1 -->
<svg width="716pt" height="284pt"
 viewBox="0.00 0.00 716.00 284.00" xmlns="http://www.w3.org/2000/svg" xmlns:xlink="http://www.w3.org/1999/xlink">
<g id="graph0" class="graph" transform="scale(1 1) rotate(0) translate(4 280)">
<title>dependencies</title>
<polygon fill="white" stroke="transparent" points="-4,4 -4,-280 712,-280 712,4 -4,4"/>
<text text-anchor="start" x="333.01" y="-42.4" font-family="Times-12" font-weight="bold" font-size="14.00">Legend</text>
<polygon fill="#ffffb3" stroke="transparent" points="120,-10 120,-30 140,-30 140,-10 120,-10"/>
<text text-anchor="start" x="143.63" y="-15.4" font-family="Times-12" font-size="14.00"> &#160;Declarations</text>
<polygon fill="#8dd3c7" stroke="transparent" points="233,-10 233,-30 253,-30 253,-10 233,-10"/>
<text text-anchor="start" x="256.73" y="-15.4" font-family="Times-12" font-size="14.00"> &#160;Module</text>
<polygon fill="#80b1d3" stroke="transparent" points="319,-10 319,-30 339,-30 339,-10 319,-10"/>
<text text-anchor="start" x="342.78" y="-15.4" font-family="Times-12" font-size="14.00"> &#160;Bootstrap</text>
<polygon fill="#fdb462" stroke="transparent" points="416,-10 416,-30 436,-30 436,-10 416,-10"/>
<text text-anchor="start" x="439.67" y="-15.4" font-family="Times-12" font-size="14.00"> &#160;Providers</text>
<polygon fill="#fb8072" stroke="transparent" points="512,-10 512,-30 532,-30 532,-10 512,-10"/>
<text text-anchor="start" x="535.73" y="-15.4" font-family="Times-12" font-size="14.00"> &#160;Exports</text>
<g id="clust1" class="cluster">
<title>cluster_RolesManagementModule</title>
<polygon fill="none" stroke="black" stroke-dasharray="1,5" points="8,-70 8,-268 700,-268 700,-70 8,-70"/>
</g>
<g id="clust3" class="cluster">
<title>cluster_RolesManagementModule_imports</title>
<polygon fill="none" stroke="black" points="584,-78 584,-130 692,-130 692,-78 584,-78"/>
</g>
<g id="clust4" class="cluster">
<title>cluster_RolesManagementModule_exports</title>
<polygon fill="none" stroke="black" points="191,-208 191,-260 477,-260 477,-208 191,-208"/>
</g>
<g id="clust6" class="cluster">
<title>cluster_RolesManagementModule_providers</title>
<polygon fill="none" stroke="black" points="16,-78 16,-130 576,-130 576,-78 16,-78"/>
</g>
<!-- UsersModule -->
<g id="node1" class="node">
<title>UsersModule</title>
<polygon fill="#8dd3c7" stroke="black" points="683.92,-122 680.92,-126 659.92,-126 656.92,-122 592.08,-122 592.08,-86 683.92,-86 683.92,-122"/>
<text text-anchor="middle" x="638" y="-99.8" font-family="Times,serif" font-size="14.00">UsersModule</text>
</g>
<!-- RolesManagementModule -->
<g id="node2" class="node">
<title>RolesManagementModule</title>
<polygon fill="#8dd3c7" stroke="black" points="436.02,-187 433.02,-191 412.02,-191 409.02,-187 271.98,-187 271.98,-151 436.02,-151 436.02,-187"/>
<text text-anchor="middle" x="354" y="-164.8" font-family="Times,serif" font-size="14.00">RolesManagementModule</text>
</g>
<!-- UsersModule&#45;&gt;RolesManagementModule -->
<g id="edge1" class="edge">
<title>UsersModule&#45;&gt;RolesManagementModule</title>
<path fill="none" stroke="black" d="M638,-122.11C638,-141.34 638,-169 638,-169 638,-169 446.14,-169 446.14,-169"/>
<polygon fill="black" stroke="black" points="446.14,-165.5 436.14,-169 446.14,-172.5 446.14,-165.5"/>
</g>
<!-- RolesGuard  -->
<g id="node3" class="node">
<title>RolesGuard </title>
<polygon fill="#fb8072" stroke="black" points="469.37,-252 382.63,-252 382.63,-216 469.37,-216 469.37,-252"/>
<text text-anchor="middle" x="426" y="-229.8" font-family="Times,serif" font-size="14.00">RolesGuard </text>
</g>
<!-- RolesManagementModule&#45;&gt;RolesGuard  -->
<g id="edge2" class="edge">
<title>RolesManagementModule&#45;&gt;RolesGuard </title>
<path fill="none" stroke="black" stroke-dasharray="5,2" d="M409.54,-187.11C409.54,-187.11 409.54,-205.99 409.54,-205.99"/>
<polygon fill="black" stroke="black" points="406.04,-205.99 409.54,-215.99 413.04,-205.99 406.04,-205.99"/>
</g>
<!-- RolesManagementService  -->
<g id="node4" class="node">
<title>RolesManagementService </title>
<polygon fill="#fb8072" stroke="black" points="365.45,-252 198.55,-252 198.55,-216 365.45,-216 365.45,-252"/>
<text text-anchor="middle" x="282" y="-229.8" font-family="Times,serif" font-size="14.00">RolesManagementService </text>
</g>
<!-- RolesManagementModule&#45;&gt;RolesManagementService  -->
<g id="edge3" class="edge">
<title>RolesManagementModule&#45;&gt;RolesManagementService </title>
<path fill="none" stroke="black" stroke-dasharray="5,2" d="M318.48,-187.11C318.48,-187.11 318.48,-205.99 318.48,-205.99"/>
<polygon fill="black" stroke="black" points="314.98,-205.99 318.48,-215.99 321.98,-205.99 314.98,-205.99"/>
</g>
<!-- RolesManagementService -->
<g id="node5" class="node">
<title>RolesManagementService</title>
<ellipse fill="#fdb462" stroke="black" cx="456" cy="-104" rx="112.3" ry="18"/>
<text text-anchor="middle" x="456" y="-99.8" font-family="Times,serif" font-size="14.00">RolesManagementService</text>
</g>
<!-- RolesManagementService&#45;&gt;RolesManagementModule -->
<g id="edge4" class="edge">
<title>RolesManagementService&#45;&gt;RolesManagementModule</title>
<path fill="none" stroke="black" d="M389.93,-118.75C389.93,-118.75 389.93,-140.59 389.93,-140.59"/>
<polygon fill="black" stroke="black" points="386.43,-140.59 389.93,-150.59 393.43,-140.59 386.43,-140.59"/>
</g>
<!-- SessionsService -->
<g id="node6" class="node">
<title>SessionsService</title>
<ellipse fill="#fdb462" stroke="black" cx="252" cy="-104" rx="73.01" ry="18"/>
<text text-anchor="middle" x="252" y="-99.8" font-family="Times,serif" font-size="14.00">SessionsService</text>
</g>
<!-- SessionsService&#45;&gt;RolesManagementModule -->
<g id="edge5" class="edge">
<title>SessionsService&#45;&gt;RolesManagementModule</title>
<path fill="none" stroke="black" d="M298.5,-118.1C298.5,-118.1 298.5,-140.72 298.5,-140.72"/>
<polygon fill="black" stroke="black" points="295,-140.72 298.5,-150.72 302,-140.72 295,-140.72"/>
</g>
<!-- TokensService -->
<g id="node7" class="node">
<title>TokensService</title>
<ellipse fill="#fdb462" stroke="black" cx="92" cy="-104" rx="68.34" ry="18"/>
<text text-anchor="middle" x="92" y="-99.8" font-family="Times,serif" font-size="14.00">TokensService</text>
</g>
<!-- TokensService&#45;&gt;RolesManagementModule -->
<g id="edge6" class="edge">
<title>TokensService&#45;&gt;RolesManagementModule</title>
<path fill="none" stroke="black" d="M92,-122.11C92,-141.34 92,-169 92,-169 92,-169 261.82,-169 261.82,-169"/>
<polygon fill="black" stroke="black" points="261.82,-172.5 271.82,-169 261.82,-165.5 261.82,-172.5"/>
</g>
</g>
</svg>
